<?xml version="1.0" encoding="utf-8"?>
<svg xmlns="http://www.w3.org/2000/svg" width="732" height="732" class="segno"><path transform="scale(12)" class="qrline" stroke="#000" d="M4 4.5h7m1 0h1m4 0h7m2 0h2m1 0h2m2 0h2m1 0h1m1 0h1m1 0h2m4 0h1m3 0h7m-53 1h1m5 0h1m1 0h2m2 0h1m1 0h2m1 0h1m1 0h2m1 0h4m2 0h1m1 0h2m1 0h1m2 0h4m1 0h3m2 0h1m5 0h1m-53 1h1m1 0h3m1 0h1m1 0h1m3 0h3m1 0h3m2 0h1m1 0h6m1 0h1m5 0h2m1 0h2m2 0h1m2 0h1m1 0h3m1 0h1m-53 1h1m1 0h3m1 0h1m3 0h2m1 0h3m4 0h2m1 0h2m1 0h1m1 0h1m1 0h1m1 0h1m2 0h1m5 0h2m1 0h1m1 0h1m1 0h3m1 0h1m-53 1h1m1 0h3m1 0h1m2 0h5m1 0h4m1 0h2m1 0h6m1 0h1m1 0h3m2 0h1m3 0h2m3 0h1m1 0h3m1 0h1m-53 1h1m5 0h1m1 0h2m2 0h3m5 0h1m1 0h3m3 0h2m1 0h5m2 0h5m3 0h1m5 0h1m-53 1h7m1 0h1m1 0h1m1 0h1m1 0h1m1 0h1m1 0h1m1 0h1m1 0h1m1 0h1m1 0h1m1 0h1m1 0h1m1 0h1m1 0h1m1 0h1m1 0h1m1 0h1m1 0h1m1 0h1m1 0h7m-45 1h2m1 0h1m4 0h1m1 0h1m2 0h1m2 0h1m3 0h2m3 0h1m3 0h1m1 0h2m1 0h1m1 0h1m-43 1h3m1 0h1m1 0h2m5 0h1m1 0h1m2 0h1m2 0h7m5 0h3m5 0h5m2 0h3m-53 1h1m3 0h1m6 0h1m6 0h1m3 0h2m4 0h1m1 0h1m5 0h2m2 0h3m2 0h1m4 0h3m-53 1h1m2 0h1m1 0h2m2 0h1m1 0h1m2 0h1m2 0h3m4 0h4m1 0h1m2 0h1m3 0h1m1 0h1m1 0h1m2 0h5m-40 1h1m3 0h2m1 0h2m5 0h3m3 0h5m1 0h2m2 0h5m3 0h1m2 0h1m2 0h1m-52 1h7m1 0h2m8 0h1m1 0h2m1 0h1m1 0h6m1 0h1m1 0h3m4 0h7m1 0h1m1 0h1m-52 1h3m1 0h1m2 0h1m4 0h3m2 0h1m1 0h3m1 0h3m2 0h4m1 0h4m2 0h1m1 0h2m1 0h1m2 0h3m1 0h1m-53 1h9m1 0h1m4 0h3m1 0h3m3 0h1m3 0h2m1 0h1m2 0h1m1 0h2m1 0h1m2 0h1m2 0h5m-50 1h3m1 0h1m4 0h1m1 0h2m1 0h1m2 0h1m1 0h1m1 0h1m1 0h2m1 0h1m6 0h2m3 0h3m7 0h1m1 0h1m-51 1h1m1 0h1m2 0h1m1 0h1m1 0h1m4 0h1m1 0h3m1 0h2m2 0h2m1 0h11m2 0h5m1 0h4m-47 1h2m1 0h1m4 0h1m5 0h2m2 0h9m4 0h1m1 0h1m2 0h4m5 0h1m1 0h2m-53 1h1m2 0h4m2 0h1m3 0h2m4 0h1m1 0h3m6 0h2m2 0h1m1 0h1m1 0h1m1 0h1m2 0h1m2 0h1m1 0h1m1 0h1m-49 1h2m1 0h1m1 0h2m3 0h1m1 0h4m1 0h1m1 0h1m2 0h2m1 0h2m5 0h1m1 0h2m1 0h3m1 0h1m2 0h1m2 0h1m1 0h1m-51 1h4m1 0h1m2 0h1m1 0h3m1 0h1m1 0h4m2 0h8m1 0h1m3 0h1m4 0h2m1 0h2m1 0h5m-52 1h1m3 0h1m2 0h2m1 0h1m1 0h1m6 0h1m1 0h1m3 0h1m3 0h1m1 0h1m4 0h2m1 0h1m1 0h3m3 0h2m2 0h2m-53 1h1m5 0h1m1 0h2m3 0h1m1 0h2m1 0h1m1 0h1m3 0h2m3 0h1m6 0h1m1 0h1m4 0h2m1 0h2m1 0h2m-50 1h4m2 0h2m2 0h3m3 0h2m2 0h2m1 0h6m2 0h4m3 0h6m1 0h2m1 0h1m-50 1h12m6 0h2m1 0h1m2 0h6m3 0h1m1 0h4m3 0h7m1 0h2m-49 1h2m3 0h1m1 0h1m1 0h2m5 0h2m3 0h1m3 0h2m1 0h1m1 0h1m1 0h3m1 0h1m1 0h4m3 0h1m1 0h3m-53 1h1m3 0h1m1 0h1m1 0h1m3 0h3m1 0h2m1 0h1m1 0h1m2 0h1m1 0h1m1 0h1m1 0h3m2 0h1m2 0h3m3 0h1m1 0h1m1 0h2m-49 1h1m2 0h1m3 0h2m2 0h1m1 0h1m2 0h1m6 0h1m3 0h1m1 0h1m1 0h1m1 0h2m1 0h2m1 0h1m1 0h1m1 0h1m3 0h2m2 0h1m-53 1h1m2 0h6m1 0h1m1 0h1m2 0h1m2 0h5m1 0h7m1 0h1m1 0h1m1 0h1m1 0h1m4 0h6m1 0h2m-52 1h2m2 0h2m1 0h2m2 0h1m3 0h3m1 0h5m3 0h2m4 0h4m4 0h2m1 0h1m1 0h1m1 0h1m1 0h3m-52 1h1m2 0h1m1 0h1m1 0h1m1 0h4m1 0h1m1 0h1m1 0h2m3 0h1m1 0h1m4 0h2m2 0h1m2 0h1m5 0h1m2 0h1m3 0h1m-52 1h3m2 0h1m3 0h4m2 0h1m1 0h4m1 0h1m3 0h2m1 0h1m1 0h2m1 0h2m4 0h1m2 0h2m1 0h2m1 0h1m1 0h1m-51 1h1m2 0h5m5 0h1m2 0h1m1 0h1m1 0h1m2 0h1m2 0h1m1 0h1m2 0h2m1 0h2m1 0h1m5 0h3m2 0h2m-51 1h5m3 0h1m1 0h2m1 0h1m2 0h6m1 0h1m1 0h4m2 0h1m2 0h4m4 0h2m3 0h2m2 0h2m-51 1h1m1 0h7m4 0h1m5 0h3m3 0h2m1 0h3m1 0h1m2 0h1m2 0h1m3 0h1m2 0h1m2 0h1m-51 1h2m1 0h1m3 0h1m2 0h8m6 0h2m2 0h1m2 0h1m1 0h3m1 0h8m1 0h2m1 0h1m2 0h1m-53 1h4m1 0h3m3 0h1m1 0h1m1 0h1m2 0h3m1 0h3m1 0h2m1 0h1m2 0h1m1 0h4m4 0h1m1 0h2m1 0h1m2 0h2m-51 1h1m2 0h1m5 0h2m2 0h3m2 0h1m1 0h1m1 0h1m1 0h1m2 0h2m3 0h3m1 0h1m1 0h1m1 0h3m2 0h7m-50 1h4m1 0h2m1 0h7m2 0h5m1 0h1m1 0h2m2 0h2m1 0h1m1 0h1m1 0h2m7 0h2m-49 1h1m2 0h1m2 0h1m1 0h1m3 0h2m2 0h1m2 0h2m3 0h2m2 0h6m2 0h4m1 0h7m3 0h1m-52 1h4m1 0h1m1 0h3m2 0h1m1 0h2m2 0h1m1 0h1m2 0h1m2 0h1m1 0h1m1 0h1m3 0h3m1 0h1m1 0h1m2 0h1m1 0h1m3 0h2m-47 1h1m4 0h1m2 0h1m2 0h1m1 0h1m2 0h1m4 0h1m2 0h4m2 0h1m1 0h1m2 0h1m1 0h3m2 0h3m1 0h2m-53 1h2m1 0h6m6 0h1m1 0h3m1 0h4m1 0h4m2 0h1m2 0h1m2 0h1m1 0h2m2 0h1m2 0h1m1 0h1m-49 1h2m4 0h4m1 0h1m1 0h1m1 0h5m2 0h1m4 0h2m1 0h4m2 0h1m1 0h6m2 0h3m2 0h1m-50 1h1m2 0h1m5 0h2m1 0h5m3 0h7m1 0h1m3 0h3m6 0h5m1 0h2m-44 1h1m2 0h1m3 0h1m1 0h1m2 0h1m1 0h1m1 0h1m3 0h1m1 0h2m5 0h1m2 0h3m1 0h1m3 0h2m2 0h1m-53 1h7m2 0h1m2 0h2m1 0h1m1 0h5m2 0h1m1 0h1m1 0h1m1 0h1m2 0h3m2 0h2m1 0h1m2 0h1m1 0h1m1 0h2m-50 1h1m5 0h1m2 0h1m1 0h1m1 0h2m3 0h1m1 0h2m1 0h2m3 0h4m2 0h1m7 0h1m1 0h1m3 0h2m1 0h2m-53 1h1m1 0h3m1 0h1m1 0h2m2 0h1m4 0h4m3 0h6m2 0h1m2 0h3m3 0h1m2 0h7m1 0h1m-53 1h1m1 0h3m1 0h1m1 0h2m2 0h1m3 0h6m1 0h1m4 0h1m1 0h1m1 0h4m1 0h1m3 0h4m4 0h1m1 0h2m-53 1h1m1 0h3m1 0h1m1 0h2m1 0h1m3 0h1m2 0h1m2 0h3m1 0h6m1 0h2m1 0h1m2 0h1m1 0h1m2 0h1m1 0h5m-50 1h1m5 0h1m3 0h1m3 0h1m1 0h3m2 0h2m2 0h2m1 0h5m1 0h1m1 0h2m1 0h5m3 0h3m1 0h1m-52 1h7m2 0h1m4 0h1m3 0h1m3 0h1m1 0h1m3 0h6m2 0h2m3 0h4m1 0h1m1 0h3"/></svg>
